<svg id="visual" viewBox="0 0 960 540" width="960" height="540" xmlns="http://www.w3.org/2000/svg" xmlns:xlink="http://www.w3.org/1999/xlink" version="1.1"><rect x="0" y="0" width="960" height="540" fill="#00182a"></rect><path d="M639 540L649.8 527.2C660.7 514.3 682.3 488.7 673.7 463C665 437.3 626 411.7 618.8 386C611.7 360.3 636.3 334.7 638 308.8C639.7 283 618.3 257 615.3 231.2C612.3 205.3 627.7 179.7 628.3 154C629 128.3 615 102.7 624 77C633 51.3 665 25.7 681 12.8L697 0L960 0L960 12.8C960 25.7 960 51.3 960 77C960 102.7 960 128.3 960 154C960 179.7 960 205.3 960 231.2C960 257 960 283 960 308.8C960 334.7 960 360.3 960 386C960 411.7 960 437.3 960 463C960 488.7 960 514.3 960 527.2L960 540Z" fill="#fa7268"></path><path d="M710 540L718.2 527.2C726.3 514.3 742.7 488.7 737.8 463C733 437.3 707 411.7 697 386C687 360.3 693 334.7 689.5 308.8C686 283 673 257 674.5 231.2C676 205.3 692 179.7 704 154C716 128.3 724 102.7 717 77C710 51.3 688 25.7 677 12.8L666 0L960 0L960 12.8C960 25.7 960 51.3 960 77C960 102.7 960 128.3 960 154C960 179.7 960 205.3 960 231.2C960 257 960 283 960 308.8C960 334.7 960 360.3 960 386C960 411.7 960 437.3 960 463C960 488.7 960 514.3 960 527.2L960 540Z" fill="#ef5f67"></path><path d="M800 540L793.8 527.2C787.7 514.3 775.3 488.7 774 463C772.7 437.3 782.3 411.7 777.7 386C773 360.3 754 334.7 745.3 308.8C736.7 283 738.3 257 738.5 231.2C738.7 205.3 737.3 179.7 731 154C724.7 128.3 713.3 102.7 708.5 77C703.7 51.3 705.3 25.7 706.2 12.8L707 0L960 0L960 12.8C960 25.7 960 51.3 960 77C960 102.7 960 128.3 960 154C960 179.7 960 205.3 960 231.2C960 257 960 283 960 308.8C960 334.7 960 360.3 960 386C960 411.7 960 437.3 960 463C960 488.7 960 514.3 960 527.2L960 540Z" fill="#e34c67"></path><path d="M784 540L789.5 527.2C795 514.3 806 488.7 805.3 463C804.7 437.3 792.3 411.7 797 386C801.7 360.3 823.3 334.7 825 308.8C826.7 283 808.3 257 801.5 231.2C794.7 205.3 799.3 179.7 797 154C794.7 128.3 785.3 102.7 783.8 77C782.3 51.3 788.7 25.7 791.8 12.8L795 0L960 0L960 12.8C960 25.7 960 51.3 960 77C960 102.7 960 128.3 960 154C960 179.7 960 205.3 960 231.2C960 257 960 283 960 308.8C960 334.7 960 360.3 960 386C960 411.7 960 437.3 960 463C960 488.7 960 514.3 960 527.2L960 540Z" fill="#d53867"></path><path d="M913 540L913.5 527.2C914 514.3 915 488.7 904.3 463C893.7 437.3 871.3 411.7 869.3 386C867.3 360.3 885.7 334.7 890.2 308.8C894.7 283 885.3 257 876.3 231.2C867.3 205.3 858.7 179.7 859.5 154C860.3 128.3 870.7 102.7 871.2 77C871.7 51.3 862.3 25.7 857.7 12.8L853 0L960 0L960 12.8C960 25.7 960 51.3 960 77C960 102.7 960 128.3 960 154C960 179.7 960 205.3 960 231.2C960 257 960 283 960 308.8C960 334.7 960 360.3 960 386C960 411.7 960 437.3 960 463C960 488.7 960 514.3 960 527.2L960 540Z" fill="#c62368"></path></svg>